<svg width="16" height="18" viewBox="0 0 16 18" fill="none" xmlns="http://www.w3.org/2000/svg">
<path d="M15.7864 4.51205L10.8955 0.188839C10.7591 0.0683036 10.575 0 10.3818 0H0.727273C0.325 0 0 0.287277 0 0.642857V17.3571C0 17.7127 0.325 18 0.727273 18H15.2727C15.675 18 16 17.7127 16 17.3571V4.96808C16 4.79732 15.9227 4.63259 15.7864 4.51205ZM14.3227 5.26339H10.0455V1.48259L14.3227 5.26339ZM14.3636 16.5536H1.63636V1.44643H8.5V5.78571C8.5 6.00949 8.60057 6.2241 8.77958 6.38234C8.95859 6.54057 9.20138 6.62946 9.45455 6.62946H14.3636V16.5536ZM8.72727 8.19643C8.72727 8.10804 8.64546 8.03572 8.54545 8.03572H7.45455C7.35455 8.03572 7.27273 8.10804 7.27273 8.19643V10.3661H4.81818C4.71818 10.3661 4.63636 10.4384 4.63636 10.5268V11.4911C4.63636 11.5795 4.71818 11.6518 4.81818 11.6518H7.27273V13.8214C7.27273 13.9098 7.35455 13.9821 7.45455 13.9821H8.54545C8.64546 13.9821 8.72727 13.9098 8.72727 13.8214V11.6518H11.1818C11.2818 11.6518 11.3636 11.5795 11.3636 11.4911V10.5268C11.3636 10.4384 11.2818 10.3661 11.1818 10.3661H8.72727V8.19643Z" fill="white"/>
</svg>
