<svg width="15" height="18" viewBox="0 0 15 18" fill="none" xmlns="http://www.w3.org/2000/svg">
<path d="M14.7997 4.51205L10.2145 0.188839C10.0866 0.0683036 9.91406 0 9.73295 0H0.681818C0.304688 0 0 0.287277 0 0.642857V17.3571C0 17.7127 0.304688 18 0.681818 18H14.3182C14.6953 18 15 17.7127 15 17.3571V4.96808C15 4.79732 14.9276 4.63259 14.7997 4.51205ZM13.4276 5.26339H9.41761V1.48259L13.4276 5.26339ZM13.4659 16.5536H1.53409V1.44643H7.96875V5.78571C7.96875 6.00949 8.06303 6.2241 8.23086 6.38234C8.39868 6.54057 8.6263 6.62946 8.86364 6.62946H13.4659V16.5536ZM8.18182 8.19643C8.18182 8.10804 8.10511 8.03571 8.01136 8.03571H6.98864C6.89489 8.03571 6.81818 8.10804 6.81818 8.19643V10.3661H4.51705C4.4233 10.3661 4.34659 10.4384 4.34659 10.5268V11.4911C4.34659 11.5795 4.4233 11.6518 4.51705 11.6518H6.81818V13.8214C6.81818 13.9098 6.89489 13.9821 6.98864 13.9821H8.01136C8.10511 13.9821 8.18182 13.9098 8.18182 13.8214V11.6518H10.483C10.5767 11.6518 10.6534 11.5795 10.6534 11.4911V10.5268C10.6534 10.4384 10.5767 10.3661 10.483 10.3661H8.18182V8.19643Z" fill="#282828"/>
</svg>
