<svg width="19" height="19" viewBox="0 0 19 19" fill="none" xmlns="http://www.w3.org/2000/svg">
<path d="M9.5 0C4.26185 0 0 4.26185 0 9.5C0 14.7382 4.26185 19 9.5 19C14.7382 19 19 14.7382 19 9.5C19 4.26185 14.7382 0 9.5 0ZM9.5 1.46154C13.9482 1.46154 17.5385 5.05181 17.5385 9.5C17.5385 13.9482 13.9482 17.5385 9.5 17.5385C5.05181 17.5385 1.46154 13.9482 1.46154 9.5C1.46154 5.05181 5.05181 1.46154 9.5 1.46154ZM6.73769 5.68538L5.68538 6.73769L8.45062 9.5L5.68685 12.2623L6.73915 13.3146L9.5 10.5501L12.2623 13.3124L13.3146 12.2623L10.5501 9.5L13.3124 6.73769L12.2623 5.68538L9.5 8.45062L6.73769 5.68685V5.68538Z" fill="#2ED667"/>
</svg>
