<svg width="13" height="15" viewBox="0 0 13 15" fill="none" xmlns="http://www.w3.org/2000/svg">
<path fill-rule="evenodd" clip-rule="evenodd" d="M0.8125 13.4211H12.1875C12.403 13.4211 12.6097 13.5042 12.762 13.6523C12.9144 13.8003 13 14.0011 13 14.2105C13 14.4199 12.9144 14.6207 12.762 14.7688C12.6097 14.9168 12.403 15 12.1875 15H0.8125C0.597012 15 0.390349 14.9168 0.237976 14.7688C0.0856026 14.6207 0 14.4199 0 14.2105C0 14.0011 0.0856026 13.8003 0.237976 13.6523C0.390349 13.5042 0.597012 13.4211 0.8125 13.4211ZM7.3125 8.82237L9.94744 6.26289L11.0963 7.37921L6.5 11.8453L1.90369 7.37921L3.05256 6.26289L5.6875 8.82237V0H7.3125V8.82237Z" fill="white"/>
</svg>
