<svg width="28" height="27" viewBox="0 0 28 27" fill="none" xmlns="http://www.w3.org/2000/svg">
<path d="M21 0H1.4C0.63 0 0 0.592683 0 1.31707V5.26829C0 5.99268 0.63 6.58537 1.4 6.58537H21C21.77 6.58537 22.4 5.99268 22.4 5.26829V1.31707C22.4 0.592683 21.77 0 21 0Z" fill="#D1C4E9"/>
<path d="M21 7.90244H1.4C0.63 7.90244 0 8.49512 0 9.21951V13.1707C0 13.8951 0.63 14.4878 1.4 14.4878H21C21.77 14.4878 22.4 13.8951 22.4 13.1707V9.21951C22.4 8.49512 21.77 7.90244 21 7.90244Z" fill="#D1C4E9"/>
<path d="M21 15.8049H1.4C0.63 15.8049 0 16.3976 0 17.122V21.0732C0 21.7976 0.63 22.3902 1.4 22.3902H21C21.77 22.3902 22.4 21.7976 22.4 21.0732V17.122C22.4 16.3976 21.77 15.8049 21 15.8049Z" fill="#D1C4E9"/>
<path d="M21 27C24.866 27 28 24.0516 28 20.4146C28 16.7776 24.866 13.8293 21 13.8293C17.134 13.8293 14 16.7776 14 20.4146C14 24.0516 17.134 27 21 27Z" fill="#43A047"/>
<path d="M19.6 16.4634H22.4V24.3659H19.6V16.4634Z" fill="white"/>
<path d="M16.8 19.0976H25.2V21.7317H16.8V19.0976Z" fill="white"/>
</svg>
