<svg width="33" height="29" viewBox="0 0 33 29" fill="none" xmlns="http://www.w3.org/2000/svg">
<path d="M8.41085 0.0625C8.41085 0.0625 5.47179 10.5116 3.21851 17.4922C3.93626 17.7567 7.91069 20.802 9.28999 21.7724C10.4852 22.6113 14.8175 25.8123 15.6363 26.7667C21.4696 27.7629 26.8042 28.5998 26.8042 28.5998C26.8042 28.5998 32.8912 4.59845 32.9479 4.02508C33.0067 3.45016 8.4124 0.0625 8.4124 0.0625" fill="#E8D807"/>
<path d="M7.59564 0.0625C7.59564 0.0625 1.18385 22.8583 0.0355494 23.6034C-1.11275 24.3505 25.987 28.5987 25.987 28.5987C25.987 28.5987 32.6009 4.45923 32.6581 3.88483C32.7159 3.31094 7.5941 0.0625 7.5941 0.0625" fill="#F7F29D"/>
<path d="M18.1345 4.22875C18.2541 4.35199 18.366 4.44119 18.4372 4.369C18.5078 4.29475 18.4233 4.18338 18.3016 4.06117L15.9921 1.42117C15.872 1.29897 15.6219 1.3495 15.5502 1.42117C15.479 1.49439 15.4265 1.74653 15.5502 1.86977L18.1335 4.22875" fill="#AEAEAE"/>
<path d="M18.2325 4.14264L15.9246 1.50522C15.8204 1.39694 15.6162 1.4222 15.5178 1.47737C15.527 1.45794 15.5393 1.44017 15.5544 1.42478C15.624 1.35156 15.8741 1.3 15.9947 1.42478L18.3042 4.06375C18.4254 4.18698 18.5099 4.29888 18.4398 4.37158C18.4278 4.38437 18.4118 4.39273 18.3944 4.3953C18.3986 4.3262 18.3264 4.23803 18.2325 4.14264" fill="#7C7B7D"/>
<path d="M14.3168 2.26886C14.6365 2.90978 15.4971 3.07066 16.2355 2.63083C16.9739 2.18894 17.3126 1.31289 16.9929 0.673515C16.6722 0.0341399 15.8127 -0.125704 15.0733 0.313093C14.3359 0.753437 13.9971 1.63155 14.3168 2.26886Z" fill="#D55863"/>
<path d="M16.5825 1.35156C16.2628 0.712189 15.4033 0.550799 14.6649 0.992174C14.5145 1.08165 14.3773 1.19148 14.257 1.31856C14.3792 0.926689 14.6618 0.554408 15.0681 0.311033C15.8065 -0.129311 16.666 0.0315646 16.9873 0.671455C17.2404 1.1778 17.0796 1.83161 16.6361 2.30031C16.7372 1.97599 16.7274 1.64135 16.5825 1.35156Z" fill="#AA1B2D"/>
<path d="M15.6668 2.58236C15.6668 2.58236 14.8531 2.79171 14.4133 2.03838C14.4133 2.03838 14.2952 1.76819 14.4509 1.84811C14.4509 1.84811 14.718 2.41685 15.6668 2.58236Z" fill="#F4F5F5"/>
</svg>
