<svg width="26" height="28" viewBox="0 0 26 28" fill="none" xmlns="http://www.w3.org/2000/svg">
<path d="M12.906 0.968996C12.8637 0.976632 12.822 0.986987 12.781 0.999996C12.5552 1.0506 12.354 1.17792 12.2116 1.36026C12.0692 1.54261 11.9944 1.7687 12 2V3H3C2.20435 3 1.44129 3.31607 0.87868 3.87868C0.31607 4.44128 0 5.20435 0 6L0 19C0 20.656 1.344 22 3 22H12V22.375L6.562 25.094C6.32171 25.21 6.13736 25.4168 6.0495 25.6687C5.96164 25.9207 5.97747 26.1972 6.0935 26.4375C6.20953 26.6778 6.41627 26.8621 6.66822 26.95C6.92018 27.0379 7.19671 27.022 7.437 26.906L12 24.625V25C12 25.2652 12.1054 25.5196 12.2929 25.7071C12.4804 25.8946 12.7348 26 13 26C13.2652 26 13.5196 25.8946 13.7071 25.7071C13.8946 25.5196 14 25.2652 14 25V24.625L18.563 26.906C18.8033 27.022 19.0798 27.0379 19.3318 26.95C19.5837 26.8621 19.7905 26.6778 19.9065 26.4375C20.0225 26.1972 20.0384 25.9207 19.9505 25.6687C19.8626 25.4168 19.6783 25.21 19.438 25.094L14 22.375V22H23C24.656 22 26 20.656 26 19V6C26 5.20435 25.6839 4.44128 25.1213 3.87868C24.5587 3.31607 23.7956 3 23 3H14V2C14.005 1.85779 13.9797 1.71615 13.9256 1.58453C13.8716 1.45291 13.79 1.33435 13.6865 1.23676C13.5829 1.13917 13.4597 1.0648 13.3251 1.01863C13.1905 0.972451 13.0477 0.955531 12.906 0.968996ZM2 6H24V19H2V6ZM20.875 7C20.651 7.02408 20.4417 7.12309 20.281 7.281L17 10.563L14.719 8.28C14.6098 8.16791 14.4757 8.08302 14.3277 8.03218C14.1797 7.98133 14.0218 7.96594 13.8667 7.98724C13.7117 8.00855 13.5638 8.06595 13.435 8.15483C13.3061 8.24372 13.2 8.3616 13.125 8.499L10.156 13.687L8.937 10.624C8.87781 10.4658 8.77953 10.3253 8.65132 10.2153C8.52312 10.1054 8.36918 10.0298 8.20384 9.99544C8.0385 9.96109 7.86716 9.96918 7.70579 10.0189C7.54443 10.0687 7.39828 10.1585 7.281 10.28L4.281 13.28C4.09004 13.4708 3.98271 13.7297 3.98262 13.9996C3.98253 14.2696 4.08968 14.5285 4.2805 14.7195C4.47132 14.9105 4.73019 15.0178 5.00015 15.0179C5.2701 15.018 5.52904 14.9108 5.72 14.72L7.626 12.814L9.064 16.376C9.13187 16.5546 9.2495 16.7101 9.40298 16.824C9.55645 16.9378 9.73934 17.0053 9.92999 17.0185C10.1206 17.0316 10.3111 16.9899 10.4787 16.8982C10.6464 16.8065 10.7842 16.6686 10.876 16.501L14.22 10.657L16.282 12.72C16.3753 12.8165 16.487 12.8932 16.6105 12.9456C16.734 12.998 16.8668 13.025 17.001 13.025C17.1352 13.025 17.268 12.998 17.3915 12.9456C17.515 12.8932 17.6267 12.8165 17.72 12.72L21.72 8.72C21.878 8.57375 21.9845 8.38044 22.0238 8.16879C22.0631 7.95714 22.0331 7.73845 21.9382 7.54524C21.8433 7.35203 21.6885 7.1946 21.497 7.09637C21.3054 6.99814 21.0873 6.96434 20.875 7Z" fill="#282828"/>
</svg>
